<svg width="18" height="15" viewBox="0 0 18 15" fill="none" xmlns="http://www.w3.org/2000/svg">
<path d="M1 6.36401C0.447715 6.36401 0 6.81173 0 7.36401C0 7.9163 0.447715 8.36401 1 8.36401V7.36401V6.36401ZM17.7071 8.07112C18.0976 7.6806 18.0976 7.04743 17.7071 6.65691L11.3431 0.292946C10.9526 -0.0975784 10.3195 -0.0975784 9.92893 0.292946C9.53841 0.68347 9.53841 1.31664 9.92893 1.70716L15.5858 7.36401L9.92893 13.0209C9.53841 13.4114 9.53841 14.0446 9.92893 14.4351C10.3195 14.8256 10.9526 14.8256 11.3431 14.4351L17.7071 8.07112ZM1 7.36401V8.36401H17V7.36401V6.36401H1V7.36401Z" fill="#B24759"/>
</svg>
