<svg width="48" height="48" viewBox="0 0 48 48" fill="none" xmlns="http://www.w3.org/2000/svg">
<path d="M24 1C37.2258 1 47.9999 9.80046 48 20.5918C48 24.9128 46.3134 28.8045 42.8496 32.6504C37.8112 38.4873 26.5642 45.5684 24 46.6543C21.4364 47.74 21.8181 45.9765 21.9082 45.3652C21.9532 45.1239 22.0652 44.4368 22.2451 43.3057C22.3351 42.6722 22.4251 41.7221 22.1777 41.1113C21.9076 40.4328 20.8506 40.0931 20.0635 39.9121C8.52473 38.3962 0 30.2746 0 20.5918C0.000130363 9.80046 10.7517 1 24 1ZM7.94727 15.0039C7.69997 15.0041 7.49805 15.2083 7.49805 15.457V25.999C7.49805 26.2478 7.69997 26.452 7.94727 26.4521H14.6953C14.9427 26.4521 15.1455 26.2479 15.1455 25.999V24.2803C15.1455 24.0314 14.9427 23.8271 14.6953 23.8271H10.1064V15.457C10.1064 15.2082 9.90455 15.004 9.65723 15.0039H7.94727ZM17.0342 15.0039C16.786 15.0041 16.585 15.2073 16.585 15.457V25.999C16.585 26.2488 16.786 26.4519 17.0342 26.4521H18.7441C18.9923 26.4519 19.1934 26.2488 19.1934 25.999V15.457C19.1934 15.2073 18.9923 15.0041 18.7441 15.0039H17.0342ZM21.3086 15.0039C21.0612 15.0039 20.8359 15.2082 20.8359 15.457V25.999C20.8359 26.2479 21.0612 26.4521 21.3086 26.4521H22.9951C23.265 26.4521 23.4678 26.2479 23.4678 25.999V19.7324L28.2588 26.248C28.2888 26.2933 28.3262 26.3312 28.3711 26.3613H28.3936C28.3936 26.3764 28.4011 26.3837 28.416 26.3838C28.416 26.3838 28.4237 26.3914 28.4385 26.4062H28.4834V26.4297H28.5283C28.5583 26.4448 28.5966 26.4521 28.6416 26.4521H30.3281C30.598 26.4521 30.8008 26.2479 30.8008 25.999V15.457C30.8008 15.2082 30.598 15.0039 30.3281 15.0039H28.6416C28.3942 15.0039 28.1689 15.2082 28.1689 15.457V21.7012L23.3779 15.208C23.3779 15.193 23.3703 15.1781 23.3555 15.1631C23.3405 15.148 23.3255 15.1323 23.3105 15.1172C23.2964 15.103 23.2889 15.0955 23.2881 15.0947C23.2881 15.0947 23.2804 15.0947 23.2656 15.0947C23.2656 15.0799 23.2579 15.0724 23.2432 15.0723C23.2432 15.0723 23.2432 15.0648 23.2432 15.0498H23.1982C23.1852 15.0367 23.1775 15.0291 23.1758 15.0273H23.1533C23.1383 15.0273 23.1299 15.019 23.1299 15.0039H21.3086ZM32.8926 15.0039C32.6452 15.0039 32.4424 15.2082 32.4424 15.457V25.999C32.4424 26.2479 32.6452 26.4521 32.8926 26.4521H39.6396C39.8871 26.4521 40.0898 26.2479 40.0898 25.999V24.2803C40.0898 24.0314 39.8871 23.8271 39.6396 23.8271H35.0518V22.04H39.6396C39.887 22.04 40.0898 21.8367 40.0898 21.5879V19.8682C40.0897 19.6194 39.887 19.416 39.6396 19.416H35.0518V17.6289H39.6396C39.8871 17.6289 40.0898 17.4246 40.0898 17.1758V15.457C40.0898 15.2082 39.8871 15.0039 39.6396 15.0039H32.8926Z" fill="white"/>
</svg>
