<svg width="48" height="46" viewBox="0 0 48 46" fill="none" xmlns="http://www.w3.org/2000/svg">
<path d="M24 4.09476C30.4125 4.09476 31.1719 4.12141 33.6938 4.228C36.0375 4.3257 37.3031 4.69876 38.1469 5.00964C39.2625 5.41823 40.0688 5.91564 40.9031 6.70617C41.7469 7.50558 42.2625 8.26058 42.6938 9.31758C43.0219 10.117 43.4156 11.325 43.5188 13.5367C43.6313 15.9349 43.6594 16.6544 43.6594 22.721C43.6594 28.7966 43.6313 29.516 43.5188 31.9054C43.4156 34.126 43.0219 35.3251 42.6938 36.1245C42.2625 37.1815 41.7375 37.9454 40.9031 38.7359C40.0594 39.5353 39.2625 40.0239 38.1469 40.4324C37.3031 40.7433 36.0281 41.1164 33.6938 41.2141C31.1625 41.3207 30.4031 41.3473 24 41.3473C17.5875 41.3473 16.8281 41.3207 14.3063 41.2141C11.9625 41.1164 10.6969 40.7433 9.85313 40.4324C8.7375 40.0239 7.93125 39.5264 7.09688 38.7359C6.25313 37.9365 5.7375 37.1815 5.30625 36.1245C4.97813 35.3251 4.58438 34.1171 4.48125 31.9054C4.36875 29.5072 4.34063 28.7877 4.34063 22.721C4.34063 16.6455 4.36875 15.926 4.48125 13.5367C4.58438 11.3161 4.97813 10.117 5.30625 9.31758C5.7375 8.26058 6.2625 7.4967 7.09688 6.70617C7.94063 5.90676 8.7375 5.41823 9.85313 5.00964C10.6969 4.69876 11.9719 4.3257 14.3063 4.228C16.8281 4.12141 17.5875 4.09476 24 4.09476ZM24 0C17.4844 0 16.6688 0.026647 14.1094 0.133235C11.5594 0.239823 9.80625 0.630646 8.2875 1.19023C6.70312 1.77647 5.3625 2.54923 4.03125 3.81941C2.69063 5.0807 1.875 6.35088 1.25625 7.84311C0.665625 9.29093 0.253125 10.943 0.140625 13.359C0.028125 15.7928 0 16.5656 0 22.7388C0 28.912 0.028125 29.6848 0.140625 32.1097C0.253125 34.5257 0.665625 36.1867 1.25625 37.6256C1.875 39.1267 2.69063 40.3969 4.03125 41.6582C5.3625 42.9195 6.70313 43.7011 8.27813 44.2785C9.80625 44.8381 11.55 45.2289 14.1 45.3355C16.6594 45.4421 17.475 45.4687 23.9906 45.4687C30.5063 45.4687 31.3219 45.4421 33.8813 45.3355C36.4313 45.2289 38.1844 44.8381 39.7031 44.2785C41.2781 43.7011 42.6188 42.9195 43.95 41.6582C45.2812 40.3969 46.1063 39.1267 46.7156 37.6345C47.3063 36.1867 47.7188 34.5346 47.8313 32.1186C47.9438 29.6937 47.9719 28.9209 47.9719 22.7477C47.9719 16.5745 47.9438 15.8017 47.8313 13.3768C47.7188 10.9608 47.3063 9.29982 46.7156 7.86088C46.125 6.35088 45.3094 5.0807 43.9688 3.81941C42.6375 2.55812 41.2969 1.77647 39.7219 1.19912C38.1938 0.639529 36.45 0.248706 33.9 0.142118C31.3313 0.026647 30.5156 0 24 0Z" fill="white"/>
<path d="M24 11.0586C17.1938 11.0586 11.6719 16.2903 11.6719 22.7389C11.6719 29.1875 17.1938 34.4192 24 34.4192C30.8062 34.4192 36.3281 29.1875 36.3281 22.7389C36.3281 16.2903 30.8062 11.0586 24 11.0586ZM24 30.3155C19.5844 30.3155 16.0031 26.9225 16.0031 22.7389C16.0031 18.5553 19.5844 15.1622 24 15.1622C28.4156 15.1622 31.9969 18.5553 31.9969 22.7389C31.9969 26.9225 28.4156 30.3155 24 30.3155Z" fill="white"/>
<path d="M39.6937 10.5965C39.6937 12.1065 38.4 13.3234 36.8156 13.3234C35.2219 13.3234 33.9375 12.0976 33.9375 10.5965C33.9375 9.08651 35.2313 7.86963 36.8156 7.86963C38.4 7.86963 39.6937 9.09539 39.6937 10.5965Z" fill="white"/>
</svg>
