<svg width="48" height="32" viewBox="0 0 48 32" fill="none" xmlns="http://www.w3.org/2000/svg">
<path d="M47.5219 6.90158C47.5219 6.90158 47.0531 3.76611 45.6094 2.38935C43.7812 0.577353 41.7375 0.56847 40.8 0.461882C34.0875 -2.54126e-07 24.0094 0 24.0094 0H23.9906C23.9906 0 13.9125 -2.54126e-07 7.2 0.461882C6.2625 0.56847 4.21875 0.577353 2.39062 2.38935C0.946875 3.76611 0.4875 6.90158 0.4875 6.90158C0.4875 6.90158 0 10.5878 0 14.265V17.7114C0 21.3887 0.478125 25.0749 0.478125 25.0749C0.478125 25.0749 0.946875 28.2103 2.38125 29.5871C4.20937 31.3991 6.60938 31.3369 7.67813 31.5323C11.5219 31.8787 24 31.9853 24 31.9853C24 31.9853 34.0875 31.9676 40.8 31.5146C41.7375 31.408 43.7812 31.3991 45.6094 29.5871C47.0531 28.2103 47.5219 25.0749 47.5219 25.0749C47.5219 25.0749 48 21.3976 48 17.7114V14.265C48 10.5878 47.5219 6.90158 47.5219 6.90158ZM19.0406 21.895V9.11329L32.0062 15.5263L19.0406 21.895Z" fill="white"/>
</svg>
