<?xml version="1.0" encoding="UTF-8"?>
<svg data-bbox="0 0 211 80" xmlns="http://www.w3.org/2000/svg" viewBox="0 0 211 80" height="80" width="211" data-type="color">
    <g>
        <path fill="#06C755" d="M211 20v40c0 11.046-8.954 20-20 20H20C8.954 80 0 71.046 0 60V20C0 8.954 8.954 0 20 0h171c11.046 0 20 8.954 20 20z" data-color="1"/>
        <g clip-path="url(#09753ab8-5afa-4b49-a2c3-9a70796ffdc2)">
            <path fill="#ffffff" d="M67.35 48.65c-5.04 5.837-16.286 12.918-18.85 14.004-2.453 1.04-2.21-.531-2.105-1.204l.013-.085c.045-.242.158-.928.338-2.059.09-.633.18-1.584-.068-2.194-.27-.68-1.327-1.019-2.114-1.2-11.54-1.515-20.064-9.637-20.064-19.32C24.5 25.801 35.252 17 48.5 17c13.226 0 24 8.8 24 19.592 0 4.321-1.687 8.212-5.15 12.058Zm-3.21-6.198h-6.748a.452.452 0 0 1-.45-.453V31.457c0-.249.203-.453.45-.453h6.748c.248 0 .45.204.45.453v1.72a.453.453 0 0 1-.45.452h-4.588v1.787h4.588c.248 0 .45.204.45.452v1.72a.453.453 0 0 1-.45.452h-4.588v1.788h4.588c.248 0 .45.203.45.452V42a.453.453 0 0 1-.45.452Zm-31.693 0h6.748c.248 0 .45-.204.45-.453V40.28a.452.452 0 0 0-.45-.452h-4.588v-8.371a.453.453 0 0 0-.45-.453h-1.71a.452.452 0 0 0-.45.453v10.542c0 .25.203.453.45.453Zm10.797-11.448h-1.71a.451.451 0 0 0-.45.453v10.542c0 .25.202.453.45.453h1.71c.248 0 .45-.203.45-.453V31.457a.451.451 0 0 0-.45-.453ZM55.3 42V31.457a.458.458 0 0 0-.472-.453h-1.687c-.247 0-.472.204-.472.453V37.7l-4.791-6.493c0-.015-.008-.03-.023-.045l-.045-.046-.022-.022h-.023c0-.015-.007-.023-.022-.023v-.022h-.045l-.023-.023h-.022c-.015 0-.023-.008-.023-.023h-1.822c-.247 0-.472.204-.472.453v10.542c0 .25.225.453.472.453h1.687c.27 0 .473-.204.473-.453v-6.266l4.79 6.515c.03.046.068.083.113.113h.023c0 .016.007.023.022.023l.023.023h.045v.022h.045a.25.25 0 0 0 .112.023h1.687c.27 0 .472-.204.472-.453Z" clip-rule="evenodd" fill-rule="evenodd" data-color="2"/>
        </g>
        <path fill="#ffffff" d="m119.82 46.5 1.94.84c-.9 1.88-2.08 3.88-3.2 5.22l-2.04-1.18c.48-.66 1.06-1.56 1.56-2.46h-4.22v6.22c0 1.26-.28 1.86-1.24 2.2-.92.34-2.22.36-3.94.36-.12-.68-.5-1.66-.86-2.28 1.18.04 2.66.04 3.06.04.38-.02.5-.1.5-.4v-6.14h-7.9v-2.26h9.1c-1.48-.62-3.1-1.26-4.38-1.74l1.18-1.8c.9.32 2.02.7 3.14 1.12.86-.54 1.76-1.2 2.54-1.88h-9.66v-2.18h11.96l.54-.14 1.7 1.34a32.974 32.974 0 0 1-4.62 3.8c.66.26 1.26.48 1.72.7l-.48.78h3.16l.44-.16Zm4.1 4.26 1.96.34c-.2 1.88-.62 3.88-1.2 5.16-.42-.26-1.3-.68-1.82-.86.58-1.18.9-2.96 1.06-4.64Zm4.46.44 1.76-.56c.54 1.18 1.06 2.74 1.3 3.76l-1.88.66c-.16-1.02-.68-2.64-1.18-3.86Zm6.24-8.76h6.82s0 .8-.02 1.1c-.26 8.76-.54 11.92-1.38 12.98-.56.76-1.08.98-1.92 1.1-.72.12-1.96.1-3.12.06-.04-.68-.36-1.72-.8-2.4 1.26.12 2.4.12 2.94.12.38 0 .6-.08.84-.34.6-.62.9-3.54 1.12-10.36h-5.52c-.54.98-1.1 1.86-1.7 2.58-.4-.36-1.28-.96-1.88-1.32.7 1.26 1.34 2.74 1.56 3.74l-1.8.84c-.06-.32-.16-.68-.28-1.08l-1.14.08v8.22h-2.1V49.7l-2.96.2-.2-2.08 1.48-.06c.3-.38.62-.8.92-1.24-.58-.86-1.56-1.94-2.4-2.74l1.12-1.64.48.42c.56-1.1 1.12-2.44 1.46-3.48l2.1.74c-.72 1.38-1.54 2.92-2.26 4.04.26.28.5.58.7.84.72-1.12 1.36-2.28 1.84-3.28l2.02.84c-1.12 1.76-2.52 3.8-3.82 5.42l2.02-.08c-.22-.48-.46-.96-.7-1.38l1.68-.74.14.24c1.48-1.58 2.66-4.14 3.3-6.66l2.44.52c-.26.98-.6 1.94-.98 2.86Zm2.26 9.14-2.06 1.1c-.38-1.26-1.42-3.18-2.44-4.62l1.9-.96c1.04 1.38 2.18 3.22 2.6 4.48Zm18.68-11.7c-.04.32-.12 1.4-.14 1.72 0 .16 0 .38-.02.62 2.02 0 4.76-.04 5.8-.02l-.02 2.36c-1.2-.06-3.06-.1-5.78-.1 0 1.02.02 2.12.02 3 .48.76.72 1.7.72 2.74 0 2.6-1.52 5.92-6.4 7.28l-2.14-2.12c2.02-.42 3.78-1.08 4.88-2.28-.28.06-.58.1-.9.1-1.54 0-3.44-1.24-3.44-3.68 0-2.26 1.82-3.74 4-3.74.28 0 .54.02.8.06 0-.44 0-.9-.02-1.34-3.02.04-6.14.16-8.6.3l-.06-2.42c2.28 0 5.92-.08 8.64-.12-.02-.26-.02-.46-.04-.62-.06-.82-.14-1.5-.2-1.74h2.9Zm-5.02 9.58c0 .92.74 1.5 1.54 1.5.84 0 1.58-.64 1.3-2.4-.28-.46-.76-.7-1.3-.7-.78 0-1.54.54-1.54 1.6Zm19.76 4.18c0 .74.82 1.24 2.02 1.24.42 0 .8-.02 1.16-.06-.12-1.3-.86-2.14-1.94-2.14-.76 0-1.24.46-1.24.96Zm-3.4-12.88c.56.08 1.26.1 1.82.1 1.06 0 5.34-.08 6.48-.18.82-.08 1.28-.14 1.52-.22l1.3 1.78c-.46.3-.94.58-1.4.92-1.08.76-3.18 2.52-4.44 3.52.66-.16 1.26-.22 1.9-.22 3.4 0 5.98 2.12 5.98 5.04 0 3.16-2.4 5.66-7.24 5.66-2.78 0-4.88-1.28-4.88-3.28 0-1.62 1.46-3.12 3.58-3.12 2.48 0 3.98 1.52 4.26 3.42 1.1-.58 1.66-1.5 1.66-2.72 0-1.8-1.8-3.02-4.16-3.02-3.06 0-5.06 1.62-7.2 4.06l-1.82-1.88c1.42-1.14 3.84-3.18 5.02-4.16 1.12-.92 3.2-2.6 4.18-3.46-1.02.02-3.78.14-4.84.2-.54.04-1.18.1-1.64.16l-.08-2.6Z" data-color="2"/>
        <path fill="#ffffff" d="M112.664 26.47h-4.662a8.87 8.87 0 0 0 2.436 3.29c.952-.882 1.736-1.96 2.226-3.29Zm.658-1.05.714.322c-.546 1.974-1.512 3.5-2.758 4.648 1.26.84 2.786 1.414 4.592 1.75-.238.21-.532.644-.658.924-1.89-.378-3.444-1.05-4.732-2.002-1.246.938-2.674 1.582-4.214 2.016-.126-.266-.364-.672-.588-.868 1.442-.364 2.8-.966 3.976-1.82-.994-.896-1.792-2.03-2.394-3.332-.616 2.058-1.638 4.144-3.304 5.572-.21-.266-.574-.518-.896-.714 2.52-2.016 3.5-5.6 3.892-8.288h-3.43V22.62h3.556c.126-1.106.154-1.96.154-2.338h1.078c-.028.434-.056 1.274-.182 2.338h7.392v1.008h-7.518a20.859 20.859 0 0 1-.336 1.848h5.488l.168-.056Zm13.258.07-.392-.112c.21-.406.462-.98.616-1.4h-3.486c.308.434.56.98.658 1.386l-.49.126h3.094Zm-4.186-1.358.644-.154h-2.422v-.798h3.962v-1.05h-3.038v-.784h3.038v-1.064h1.036v1.064h3.15v.784h-3.15v1.05h4.116v.798h-2.478l.602.168c-.266.49-.518.98-.756 1.344h2.436v.798h-3.92v.938h3.36v.77h-3.36v1.036h4.004v.812h-4.004v1.316h-1.036v-1.316h-3.822v-.812h3.822v-1.036h-3.122v-.77h3.122v-.938h-3.654v-.798h2.086c-.098-.392-.35-.938-.616-1.358Zm-2.016-1.218-.84.644c-.42-.7-1.358-1.666-2.212-2.338l.798-.588c.854.644 1.82 1.596 2.254 2.282Zm-.42 2.856v4.494c.658 1.036 1.89 1.512 3.528 1.568 1.54.07 4.76.028 6.44-.084a3.811 3.811 0 0 0-.336 1.022c-1.568.07-4.522.098-6.09.028-1.834-.07-3.094-.56-3.962-1.652-.616.602-1.26 1.19-1.946 1.792l-.546-.994a23.044 23.044 0 0 0 1.932-1.61V26.75H117.2v-.98h2.758Zm16.926-3.22c1.526.252 4.354.196 5.754-.014v1.134c-1.498.168-4.214.168-5.754 0v-1.12Zm.546 5.698c-.14.518-.21.91-.21 1.288 0 .644.462 1.26 2.366 1.26 1.26 0 2.338-.112 3.472-.364l.028 1.176c-.882.168-2.058.294-3.5.294-2.352 0-3.402-.784-3.402-2.1 0-.476.084-.966.238-1.652l1.008.098Zm-3.22-6.776c-.07.238-.196.686-.252.938-.266 1.288-.7 3.794-.7 5.362 0 .686.042 1.274.126 1.96.238-.63.574-1.47.812-2.044l.588.448c-.364.994-.868 2.478-.994 3.136-.042.21-.084.476-.07.63.014.154.028.35.042.49l-1.008.07c-.28-.994-.518-2.604-.518-4.494 0-2.058.462-4.452.63-5.614.056-.322.098-.686.098-.994l1.246.112Zm16.604-.588c-.126.504-.322 1.358-.546 2.17a13.53 13.53 0 0 0 2.198-.518l.028 1.05c-.742.21-1.624.392-2.548.518-.686 1.974-1.932 4.396-3.052 5.908l-1.078-.56c1.162-1.358 2.352-3.598 2.996-5.236-.42.028-.84.042-1.246.042-.518 0-1.106-.014-1.638-.042l-.07-1.05c.518.07 1.12.098 1.708.098.504 0 1.036-.028 1.582-.07.21-.784.406-1.666.434-2.422l1.232.112Zm-.77 9.716c0 .658.532 1.106 1.624 1.106 1.162 0 1.554-.616 1.554-1.386 0-.182 0-.392-.014-.63a4.854 4.854 0 0 0-1.442-.21c-1.022 0-1.722.476-1.722 1.12Zm4.074-5.39a18.416 18.416 0 0 0-.014 1.512c.014.518.07 1.428.098 2.296 1.204.434 2.184 1.12 2.912 1.736l-.602.952c-.602-.532-1.358-1.162-2.268-1.61.014.224.014.42.014.588 0 1.12-.714 2.03-2.45 2.03-1.54 0-2.8-.63-2.8-2.016 0-1.288 1.218-2.1 2.8-2.1.476 0 .938.042 1.372.14-.056-1.148-.126-2.534-.154-3.528h1.092Zm2.8.378c-.756-.644-2.268-1.512-3.206-1.932l.574-.854c1.008.448 2.604 1.358 3.262 1.862l-.63.924Zm3.822.826c.42-.084.868-.21 1.316-.35.994-.308 3.29-1.148 4.942-1.148 1.988 0 3.416 1.19 3.416 3.108 0 2.688-2.59 4.06-6.37 4.298l-.448-1.078c3.024-.098 5.684-.966 5.684-3.248 0-1.176-.938-2.072-2.366-2.072-1.736 0-4.802 1.288-5.698 1.638l-.476-1.148Zm12.253-3.71c.532-.014.98-.042 1.246-.07.91-.098 3.556-.364 6.132-.574 1.526-.14 2.842-.21 3.78-.252v1.12c-.798 0-2.03.014-2.744.224-1.988.644-3.206 2.772-3.206 4.424 0 2.744 2.548 3.612 4.83 3.696l-.406 1.162c-2.59-.098-5.544-1.484-5.544-4.606 0-2.184 1.33-3.962 2.618-4.732-1.498.168-5.068.504-6.58.826l-.126-1.218Z" data-color="2"/>
        <defs fill="none">
            <clipPath id="09753ab8-5afa-4b49-a2c3-9a70796ffdc2">
                <path transform="translate(24.5 16)" fill="#ffffff" d="M48 0v48H0V0h48z"/>
            </clipPath>
        </defs>
    </g>
</svg>
