<svg width="27" height="26" viewBox="0 0 27 26" fill="none" xmlns="http://www.w3.org/2000/svg">
<path d="M26.6667 10.8813C26.6667 4.90267 20.6453 0 13.3333 0C6.02133 0 0 4.86 0 10.8813C0 16.2147 4.73067 20.688 11.14 21.548C11.5693 21.5907 12.172 21.8493 12.3 22.1933C12.4307 22.4947 12.344 23.0533 12.344 23.3973C12.344 23.3973 12.172 24.3867 12.172 24.5587C12.1293 24.86 11.9133 25.892 13.3333 25.204C14.7093 24.6027 20.9893 20.644 23.828 17.4627C25.764 15.3973 26.6667 13.2467 26.6667 10.8813ZM8.60267 14.0213C8.59773 14.0883 8.56889 14.1513 8.52141 14.1987C8.47393 14.2462 8.41097 14.2751 8.344 14.28H4.60267C4.55867 14.28 4.47333 14.236 4.42933 14.236C4.38667 14.1933 4.38667 14.108 4.38667 14.064V8.21467C4.38667 8.08533 4.516 7.95733 4.64533 7.95733H5.548C5.67733 7.95733 5.80667 8.08533 5.80667 8.21467V12.8173H8.344C8.47333 12.8173 8.60267 12.9467 8.60267 13.0747V14.0213ZM10.8387 14.0213C10.8337 14.0883 10.8049 14.1513 10.7574 14.1987C10.7099 14.2462 10.647 14.2751 10.58 14.28H9.67733C9.6106 14.2748 9.54796 14.2458 9.50075 14.1983C9.45354 14.1509 9.42489 14.0881 9.42 14.0213V8.21467C9.42 8.08533 9.548 7.95733 9.67733 7.95733H10.58C10.7093 7.95733 10.8387 8.08533 10.8387 8.21467V14.0213ZM17.3333 14.0213C17.3284 14.0883 17.2996 14.1513 17.2521 14.1987C17.2046 14.2462 17.1416 14.2751 17.0747 14.28H16.1293C16.0867 14.28 16.0867 14.236 16.0867 14.236L13.3333 10.6227V14.064C13.3284 14.131 13.2996 14.1939 13.2521 14.2414C13.2046 14.2889 13.1416 14.3177 13.0747 14.3227H12.172C12.105 14.3177 12.0421 14.2889 11.9946 14.2414C11.9471 14.1939 11.9183 14.131 11.9133 14.064V8.25733C11.9133 8.12933 12.0427 8 12.172 8H13.076L13.1187 8.04267L15.7853 11.6133V8.172C15.7853 8.04267 15.9133 7.91333 16.0427 7.91333H17.0747C17.204 7.91333 17.3333 8.04267 17.3333 8.172V14.0213ZM22.4947 9.16133C22.4894 9.22806 22.4605 9.29071 22.413 9.33792C22.3656 9.38513 22.3028 9.41377 22.236 9.41867H19.6987V10.408H22.236C22.3653 10.408 22.4947 10.5373 22.4947 10.6667V11.5693C22.4897 11.6363 22.4609 11.6993 22.4134 11.7467C22.3659 11.7942 22.303 11.8231 22.236 11.828H19.6987V12.7307H22.236C22.3653 12.7307 22.4947 12.86 22.4947 12.9893V13.892C22.4897 13.959 22.4609 14.0219 22.4134 14.0694C22.3659 14.1169 22.303 14.1457 22.236 14.1507H18.4947C18.452 14.1507 18.3653 14.108 18.3213 14.108C18.28 14.064 18.28 13.9787 18.28 13.9347V8.13067C18.28 8.08667 18.3227 8.00133 18.3227 7.95733C18.3653 7.91467 18.452 7.91467 18.4947 7.91467H22.236C22.3653 7.91467 22.4947 8.044 22.4947 8.17333V9.16133Z" fill="#333333"/>
</svg>
