<svg width="27" height="19" viewBox="0 0 27 19" fill="none" xmlns="http://www.w3.org/2000/svg">
<path d="M26.1174 2.93957C25.9692 2.36838 25.672 1.84677 25.2562 1.42803C24.8404 1.0093 24.3208 0.708457 23.7507 0.55624C20.2941 0.14649 16.8145 -0.0372339 13.334 0.00624004C9.85354 -0.0372339 6.37393 0.14649 2.91737 0.55624C2.34722 0.708457 1.82771 1.0093 1.41191 1.42803C0.996102 1.84677 0.698911 2.36838 0.550699 2.93957C0.172324 5.06286 -0.0117709 7.21621 0.000698877 9.37291C-0.012872 11.5407 0.171223 13.7052 0.550699 15.8396C0.70659 16.4015 1.0072 16.9128 1.42249 17.3222C1.83779 17.7317 2.35324 18.025 2.91737 18.1729C6.37393 18.5827 9.85354 18.7664 13.334 18.7229C16.8145 18.7664 20.2941 18.5827 23.7507 18.1729C24.3148 18.025 24.8303 17.7317 25.2456 17.3222C25.6609 16.9128 25.9615 16.4015 26.1174 15.8396C26.4968 13.7052 26.6809 11.5407 26.6674 9.37291C26.6798 7.21621 26.4957 5.06286 26.1174 2.93957ZM10.6007 13.3562V5.42291L17.584 9.37291L10.6007 13.3396V13.3562Z" fill="#333333"/>
</svg>
